<svg version="1.1" id="Layer_3" xmlns="http://www.w3.org/2000/svg" xmlns:xlink="http://www.w3.org/1999/xlink" x="0px" y="0px" viewBox="0 0 190 22.9" xml:space="preserve"><path d="M172,0c-3.4,0-4.1,2.2-4.2,3.3c0,0.3,0.2,0.5,0.5,0.4c4-1,3.8,4.8-1.2,4.1c-2.9-0.4-4.3-2.8-4.8-4c-0.2-0.4-0.6-0.7-1.1-0.7
	H28.5c-0.5,0-0.9,0.3-1.1,0.7c-0.5,1.2-1.9,3.6-4.8,4c-5.1,0.7-5.3-5.1-1.2-4.1c0.3,0.1,0.5-0.1,0.5-0.4C21.8,2.2,21.1,0,17.7,0
	C13.2,0,8,3.8,13.2,11.1c0.2,0.2,0.2,0.5,0,0.7c-5.2,7.3,0,11.1,4.5,11.1c3.4,0,4.1-2.2,4.2-3.3c0-0.3-0.2-0.5-0.5-0.4
	c-4,1-3.8-4.8,1.2-4.1c2.9,0.4,4.3,2.8,4.8,4c0.2,0.4,0.6,0.7,1.1,0.7h132.7c0.5,0,0.9-0.3,1.1-0.7c0.5-1.2,1.9-3.6,4.8-4
	c5.1-0.7,5.3,5.1,1.2,4.1c-0.3-0.1-0.5,0.1-0.5,0.4c0.1,1.1,0.7,3.3,4.2,3.3c4.5,0,9.7-3.8,4.5-11.1c-0.2-0.2-0.2-0.5,0-0.7
	C181.7,3.8,176.5,0,172,0z" style="fill:rgba(0,0,0,0.5)"></path><path d="M11.1,11.9c0.3-0.2,0.3-0.7,0-0.9c-0.9-0.5-2.2-1.5-2.6-2.9c-0.2-0.6-0.1-1.2,0-1.6c0.1-0.2-0.2-0.4-0.4-0.3
	C7.7,6.4,6.9,6.9,6,8.2c-1.2,1.7-4.3,2.6-5.8,3c-0.2,0.1-0.2,0.4,0,0.4C1.7,12,4.8,13,6,14.7c1,1.3,1.7,1.8,2.2,2
	c0.2,0.1,0.4-0.1,0.4-0.3c-0.1-0.4-0.2-1,0-1.6C8.8,13.4,10.2,12.4,11.1,11.9z" style="fill:rgba(0,0,0,0.5)"></path><path d="M189.8,11.2c-1.5-0.4-4.6-1.3-5.8-3c-1-1.3-1.7-1.8-2.2-2c-0.2-0.1-0.4,0.1-0.4,0.3c0.1,0.4,0.2,1,0,1.6
	c-0.4,1.3-1.7,2.3-2.6,2.9c-0.3,0.2-0.3,0.7,0,0.9c0.9,0.5,2.2,1.5,2.6,2.9c0.2,0.6,0.1,1.2,0,1.6c-0.1,0.2,0.2,0.4,0.4,0.3
	c0.4-0.2,1.2-0.7,2.2-2c1.2-1.7,4.3-2.6,5.8-3C190.1,11.6,190.1,11.3,189.8,11.2z" style="fill:rgba(0,0,0,0.5)"></path><path d="M160.7,22.9H29.3c-0.3,0-0.6-0.2-0.6-0.6l0,0c0-0.3,0.2-0.6,0.6-0.6h131.4c0.3,0,0.6,0.2,0.6,0.6l0,0
	C161.3,22.7,161,22.9,160.7,22.9z" style="fill:rgba(0,0,0,0.5)"></path><path d="M160.7,1.1H29.3c-0.3,0-0.6-0.2-0.6-0.6v0C28.7,0.2,29,0,29.3,0h131.4c0.3,0,0.6,0.2,0.6,0.6v0C161.3,0.9,161,1.1,160.7,1.1
	z" style="fill:rgba(0,0,0,0.5)"></path></svg>